<?xml version="1.0" encoding="UTF-8"?>
<svg id="Calque_2" xmlns="http://www.w3.org/2000/svg" viewBox="0 0 283.59 219.75">
  <defs>
    <style>
      .cls-1 {
        fill: #c14949;
      }
    </style>
  </defs>
  <g id="Calque_1-2" data-name="Calque_1">
    <g id="wBl7BX">
      <g>
        <path class="cls-1" d="M165.61,205.34c-1.78,2.5-3.58,4.99-5.33,7.5-1.31,1.88-3.85,1.92-5.15.04-1.68-2.42-3.36-4.85-5.04-7.27-.16.04-.31.07-.47.11,0,3.56-.02,7.12,0,10.68.02,3.04-.72,3.59-4.28,2.88-.46-.09-.98-.99-.99-1.52-.05-5.53.01-11.06.03-16.59,0-.97-.11-1.94-.05-2.9.03-.44.21-1.02.57-1.27,1.28-.88,4.99-.01,5.83,1.21,2.29,3.33,4.63,6.63,7.12,10.17.5-.55.87-.88,1.13-1.26,2.09-2.94,4.16-5.89,6.23-8.83.92-1.3,4.4-2.13,5.84-1.32.33.18.54.71.54,1.08.04,6.71.06,13.43,0,20.14,0,.39-.8.79-1.24,1.17-.06.05-.25.01-.37.01-4.7,0-3.89.23-3.91-3.2-.01-3.06.02-6.12.02-9.18,0-.51-.06-1.02-.09-1.53-.13-.03-.25-.07-.38-.1Z"/>
        <path class="cls-1" d="M69.5,174.16c2.49-3.45,4.77-6.59,7.02-9.74,1.21-1.69,3.99-2.57,6.15-1.82.33.11.65.64.66.97.03,6.82.04,13.64-.04,20.45,0,.4-.84.8-1.31,1.19-.07.05-.25,0-.37.01q-3.85.15-3.83-3.12c0-3.7,0-7.4,0-11.52-.71.88-1.24,1.48-1.7,2.12-1.28,1.79-2.51,3.6-3.79,5.38-1.64,2.28-4.17,2.27-5.81-.04-1.65-2.32-3.27-4.65-5.27-6.89,0,4.04.03,8.09-.03,12.13,0,.62-.36,1.73-.67,1.75-1.47.14-2.99.01-4.47-.11-.13-.01-.27-.66-.27-1.02-.02-6.76-.03-13.53-.02-20.29,0-.34.13-.82.41-.99,1.23-.75,5.27.14,6.07,1.27,2.34,3.31,4.69,6.61,7.29,10.26Z"/>
        <path class="cls-1" d="M112.6,205.67c0,3.84.02,7.68-.03,11.51,0,.69-.23,1.94-.5,1.97-1.47.17-3,.09-4.49-.07-.2-.02-.37-.95-.37-1.45-.02-5.1.01-10.2,0-15.31,0-1.23-.13-2.46-.24-3.69-.11-1.25.39-1.82,2.01-1.92,2.38-.14,3.89.5,5.04,2.35,1.9,3.07,4.11,6.01,6.36,9.26,2.14-2.97,4.11-5.7,6.08-8.43.33-.46.66-.91.99-1.37,1.19-1.63,3.57-2.39,5.66-1.68.38.13.77.71.77,1.09.06,6.77.05,13.53.09,20.3,0,.85-.43,1.08-1.37,1.13-3.87.21-3.9.17-3.86-3.16.05-3.65.01-7.3.01-11.4-.6.66-.96.97-1.22,1.34-1.6,2.25-3.16,4.52-4.78,6.76-1.36,1.86-3.44,1.8-4.73-.07-1.67-2.42-3.4-4.82-5.11-7.23-.1.02-.21.05-.31.07Z"/>
        <path class="cls-1" d="M121.79,173.9c0-3.33-.04-6.66.05-9.98.01-.47.66-1.32,1-1.32,4.23.09,8.56-.11,12.67.56,8.41,1.38,10.84,5.59,10.09,12.94-.52,5.1-5.86,8.02-10.36,8.59-3.99.5-8.08.4-12.13.55-1.29.05-1.34-.68-1.33-1.51.02-3.27.01-6.55.01-9.82ZM127.32,173.68h.02c0,1.99.01,3.98,0,5.96,0,.94.44,1.43,1.6,1.29,2.43-.3,4.91-.45,7.27-.97,2.59-.57,3.9-2.29,4.22-4.5.14-.95.11-1.93.05-2.9-.16-2.75-1.84-4.58-5-5.15-2.09-.38-4.26-.45-6.39-.66-1.31-.13-1.83.3-1.78,1.44.08,1.82.02,3.65.02,5.48Z"/>
        <path class="cls-1" d="M197.72,185.24c-1.61,0-3.02.12-4.36-.06-.56-.08-1.19-.75-1.44-1.26-1.82-3.74-1.8-3.76-6.5-3.75-1.9,0-3.81.11-5.7-.01-1.57-.1-2.37.43-2.7,1.65-.06.21-.18.4-.27.6-1.42,3.18-1.9,3.39-6.23,2.56.57-1.35,1.07-2.7,1.7-4,2.72-5.64,5.51-11.26,8.18-16.92.58-1.23,1.34-1.82,2.95-1.68,1.64.14,3.26-.26,4.16,1.66,3.2,6.8,6.64,13.52,9.99,20.28.09.19.11.4.24.95ZM184.02,167.52c-1.43,3.01-2.63,5.55-3.89,8.21,2.69,0,5.11,0,7.99,0-1.38-2.76-2.62-5.25-4.1-8.22Z"/>
        <path class="cls-1" d="M99.62,166.73c0,1.27.05,2.33-.01,3.39-.06,1.06.49,1.42,1.71,1.39,2.54-.05,5.08.04,7.62-.04,1.35-.04,1.78.37,1.75,1.48-.08,3.28.62,2.77-3.28,2.81-2.03.02-4.06,0-6.1,0-.38,0-1.08,0-1.09.06-.24,1.37-.52,2.76-.51,4.14,0,.32,1.01.89,1.57.91,2.85.09,5.72.09,8.57.03,1.24-.03,1.77.35,1.68,1.39-.03.32-.05.65,0,.97.26,1.52-.4,2.04-2.29,1.99-4.38-.12-8.76-.08-13.14-.01-1.55.02-2.13-.41-2.11-1.76.06-6.39.05-12.79,0-19.18,0-1.26.35-1.84,2.02-1.81,4.44.09,8.89.11,13.33,0,2.26-.06,1.81,1.2,1.87,2.25.06,1.12.08,2.12-1.93,2.03-3.1-.13-6.21-.04-9.67-.04Z"/>
        <path class="cls-1" d="M197.21,205.77v4.21c-3.01,0-5.92.05-8.82-.02-1.37-.03-1.93.28-1.88,1.52.17,4.37-.73,3.57,4.32,3.64,1.9.03,3.81.07,5.71-.01,1.36-.06,1.85.44,1.81,1.5-.02.54.17,1.14-.06,1.59-.23.46-.85,1.1-1.31,1.11-4.76.08-9.52.03-14.28.05-1.11,0-1.4-.41-1.4-1.27,0-6.6-.02-13.2-.07-19.8,0-1.02.47-1.49,1.67-1.49,4.51,0,9.01-.04,13.51.06.53.01,1.18.69,1.5,1.18.24.37,0,.95.06,1.43.12,1.1-.37,1.54-1.73,1.5-2.73-.07-5.46.02-8.18-.04-1.18-.03-1.54.34-1.52,1.31.08,4.17-.52,3.49,4.1,3.53,2.14.02,4.28,0,6.59,0Z"/>
        <path class="cls-1" d="M96.37,205.75q.8,4.21-3.81,4.21c-1.72,0-3.43-.03-5.14.01-.44.01-1.24.26-1.25.43-.09,1.44-.08,2.88.05,4.31.01.16.96.37,1.48.38,2.6.04,5.21.09,7.81,0,1.49-.06,2.05.4,2.13,1.61.17,2.51.07,2.64-2.88,2.64-4,0-8.01-.05-12.01.02-1.48.03-1.96-.32-1.94-1.63.09-5.48.04-10.96.04-16.44,0-.27.03-.54,0-.81-.55-4.44.05-3.64,4.24-3.68,3.3-.03,6.61,0,9.91,0,2.24,0,2.21.05,2.33,2.21.08,1.41-.3,2.07-2.19,1.96-2.47-.14-4.95,0-7.43-.05-1.17-.03-1.72.19-1.72,1.32,0,4.21-.16,3.49,3.99,3.52,2.09.02,4.19,0,6.38,0Z"/>
        <path class="cls-1" d="M210.07,178.99c1.73,2.27,4.41,3.05,6.95,1.92.83-.37,1.78-1.28,1.81-1.97.04-.67-.88-1.59-1.66-2.02-1.03-.57-2.38-.7-3.53-1.14-1.77-.69-3.65-1.3-5.2-2.26-4-2.49-3.86-7.28.13-9.76,5.29-3.28,13.14-1.72,15.78,3.36-1.53.54-3.06,1.07-4.56,1.6-2.06-2.12-4.13-2.78-6.64-1.89-.84.3-1.79,1.18-1.92,1.89-.1.6.73,1.61,1.47,1.96,1.41.67,3.07.95,4.59,1.48,1.28.45,2.59.9,3.73,1.55,4.54,2.59,4.55,7.85-.09,10.35-3.93,2.11-8.12,2.2-12.3.34-.39-.17-.74-.42-1.07-.66-2.87-2.14-2.68-3.18.8-4.25.53-.16,1.06-.32,1.68-.5Z"/>
        <path class="cls-1" d="M225.67,201.08c-2.12.74-3.56,1.24-5.14,1.8-1.35-2.11-3.58-2.51-6.01-1.9-.93.24-2.16,1.08-2.28,1.77-.12.67.83,1.72,1.64,2.2,1,.59,2.36.72,3.52,1.12,1.46.51,2.97.96,4.29,1.68,4.71,2.56,4.79,7.7.25,10.47-3.47,2.12-9.74,2.04-13.05-.23-.67-.46-1.25-1.07-1.72-1.69-1.13-1.52-1-1.76,1-2.39.59-.19,1.21-.33,1.78-.54.87-.32,1.37-.3,1.93.56,1.33,2.06,6.21,2.06,7.74.1.77-.99.51-1.91-.55-2.53-.92-.53-2.02-.85-3.06-1.23-1.91-.7-3.89-1.28-5.72-2.09-2.83-1.27-3.94-3.38-3.57-6.05.35-2.52,2.2-4.09,4.8-4.96,3.37-1.13,6.91-1.2,10.1.33,1.49.72,2.49,2.15,4.06,3.57Z"/>
        <path class="cls-1" d="M70.87,206.85q.56,4.29-4.09,4.29c-.95,0-1.91-.02-2.86,0-3.78.07-3.32-.57-3.38,2.95-.02,1.29.01,2.58.03,3.87.01.87-.28,1.35-1.51,1.39-3.76.11-3.74.15-3.76-2.99-.03-5.96-.05-11.92-.13-17.88-.02-1.2.34-1.76,1.92-1.73,4.13.08,8.25.07,12.38,0,1.45-.02,2.05.34,2.04,1.63-.01,2.54.06,2.54-2.94,2.54-2.16,0-4.32.04-6.48-.02-1.18-.03-1.56.38-1.54,1.33.1,5.71-.86,4.51,5.13,4.62,1.7.03,3.4,0,5.19,0Z"/>
        <path class="cls-1" d="M156.06,173.76c0-3.27.03-6.54-.02-9.81-.02-1.02.34-1.46,1.61-1.43,4.98.11,4.05-.52,4.08,3.31.05,5.9-.03,11.8.04,17.69.02,1.36-.52,1.76-2.07,1.74-4.45-.07-3.59.04-3.64-3.14-.04-2.79,0-5.58,0-8.36Z"/>
        <path class="cls-1" d="M99.45,160.7c2.47-4.64,3.9-5.38,8.75-4.74-1.31,1.48-2.32,3.19-3.93,4.24-1.02.67-2.94.35-4.82.5Z"/>
      </g>
    </g>
    <path class="cls-1" d="M.77,0s8.77,0,22.42,0c24.64,25.13,49.28,50.26,73.92,75.39C122.38,50.26,147.65,25.13,172.92,0c36.74.31,73.47.62,110.21.93.16,7.55.31,15.1.47,22.65-30.07.53-60.14,1.06-90.2,1.59.31,15.1.62,30.2.93,45.3,23.52-.27,47.04-.54,70.56-.8.22,7.17.43,14.34.65,21.51-46.02.05-69.95.08-69.95.08h0s0,0,0,0c-.21,20.76-.41,41.51-.62,62.27h-26.93c-.08-37.98-.16-75.95-.25-113.93h0s-.01,0-68.68,68.78c-23.76-22.68-47.51-45.36-71.27-68.04.03,68.95.05,113.24.05,113.25h0S0,154.09,0,154.09h0S.77.01.77,0h0Z"/>
  </g>
</svg>